<svg width="720" height="900" viewBox="0 0 720 900" fill="none" xmlns="http://www.w3.org/2000/svg">
<g clip-path="url(#clip0_113_121)">
<rect width="720" height="900" fill="#FAF7F2"/>
<g clip-path="url(#clip1_113_121)">
<path d="M620 380C774.64 380 900 263.594 900 120C900 -23.594 774.64 -140 620 -140C465.36 -140 340 -23.594 340 120C340 263.594 465.36 380 620 380Z" fill="url(#paint0_radial_113_121)"/>
<path d="M580 980C701.503 980 800 890.457 800 780C800 669.543 701.503 580 580 580C458.497 580 360 669.543 360 780C360 890.457 458.497 980 580 980Z" fill="url(#paint1_radial_113_121)"/>
<path d="M650 630C749.411 630 830 549.411 830 450C830 350.589 749.411 270 650 270C550.589 270 470 350.589 470 450C470 549.411 550.589 630 650 630Z" fill="#DCFCE7" fill-opacity="0.35"/>
<path d="M720 0V180C640 153.333 560 160 480 200C400 240 340 233.333 300 180C260 126.667 220 120 180 160L0 0H720Z" fill="#DCFCE7" fill-opacity="0.5"/>
<path d="M0 900V740C80 766.667 160 760 240 720C320 680 400 686.667 480 740C560 793.333 640 800 720 760V900H0Z" fill="#DCFCE7" fill-opacity="0.4"/>
<path d="M120 260C153.137 260 180 233.137 180 200C180 166.863 153.137 140 120 140C86.8629 140 60 166.863 60 200C60 233.137 86.8629 260 120 260Z" fill="#4ADE80" fill-opacity="0.12"/>
<path d="M600 340C622.091 340 640 322.091 640 300C640 277.909 622.091 260 600 260C577.909 260 560 277.909 560 300C560 322.091 577.909 340 600 340Z" fill="#FACC15" fill-opacity="0.15"/>
<path d="M680 700C707.614 700 730 677.614 730 650C730 622.386 707.614 600 680 600C652.386 600 630 622.386 630 650C630 677.614 652.386 700 680 700Z" fill="#22C55E" fill-opacity="0.1"/>
<path d="M520 130C520 96.6667 533.333 80 560 80C566.667 76.6667 573.333 76.6667 580 80C606.667 80 620 96.6667 620 130C620 170 603.333 196.667 570 210C536.667 196.667 520 170 520 130Z" fill="url(#paint2_linear_113_121)"/>
<path d="M555 145C564.941 145 573 133.807 573 120C573 106.193 564.941 95 555 95C545.059 95 537 106.193 537 120C537 133.807 545.059 145 555 145Z" fill="white" fill-opacity="0.25"/>
<path d="M568 80C569.333 68 571.667 60.6667 575 58" stroke="#7C5B3A" stroke-width="3" stroke-linecap="round"/>
<path d="M575 61.9999C586.333 53.9999 594.667 54.6666 600 63.9999C594.667 69.3332 586.333 68.6666 575 61.9999Z" fill="#22C55E"/>
<path d="M540 340C563.333 360 576.667 386.667 580 420C583.333 460 570 493.333 540 520C510 493.333 496.667 460 500 420C503.333 386.667 516.667 360 540 340Z" fill="url(#paint3_linear_113_121)"/>
<path d="M539.999 370C554.666 383.333 562.999 401.667 564.999 425C566.999 451.667 558.666 475 539.999 495C521.333 475 512.999 451.667 514.999 425C516.999 401.667 525.333 383.333 539.999 370Z" fill="#BEF264" fill-opacity="0.6"/>
<path d="M540 473C552.15 473 562 460.464 562 445C562 429.536 552.15 417 540 417C527.85 417 518 429.536 518 445C518 460.464 527.85 473 540 473Z" fill="#92400E" fill-opacity="0.55"/>
<path d="M535 451C540.523 451 545 445.18 545 438C545 430.82 540.523 425 535 425C529.477 425 525 430.82 525 438C525 445.18 529.477 451 535 451Z" fill="#A16207" fill-opacity="0.3"/>
<path d="M521.216 773.892C517.532 752.997 522.299 731.494 534.469 714.114C546.638 696.734 565.214 684.9 586.109 681.216C607.004 677.531 628.507 682.298 645.887 694.468C663.267 706.638 675.101 725.213 678.785 746.108L600.001 760L521.216 773.892Z" fill="url(#paint4_linear_113_121)"/>
<path d="M528.747 770.533C525.431 751.728 529.721 732.375 540.674 716.733C551.627 701.091 568.345 690.44 587.15 687.124C605.956 683.808 625.308 688.099 640.95 699.051C656.593 710.004 667.243 726.722 670.559 745.528L599.653 758.03L528.747 770.533Z" fill="#FFF7ED" fill-opacity="0.3"/>
<path d="M600.001 760L532.23 721.179" stroke="#FDBA74" stroke-opacity="0.6" stroke-width="1.5"/>
<path d="M600.001 760L558.648 698.243" stroke="#FDBA74" stroke-opacity="0.6" stroke-width="1.5"/>
<path d="M600.002 760L586.457 683.185" stroke="#FDBA74" stroke-opacity="0.6" stroke-width="1.5"/>
<path d="M600.001 760L617.738 687.824" stroke="#FDBA74" stroke-opacity="0.6" stroke-width="1.5"/>
<path d="M600.001 760L650.407 700.341" stroke="#FDBA74" stroke-opacity="0.6" stroke-width="1.5"/>
<path d="M115 145.981C113.66 123.66 117.321 110 125.981 105C134.641 100 148.301 103.66 166.962 115.981C168.301 138.301 164.641 151.962 155.981 156.962C147.321 161.962 133.66 158.301 115 145.981Z" fill="#4ADE80" fill-opacity="0.7"/>
<path d="M128.48 109.33L153.48 152.631" stroke="#22C55E" stroke-opacity="0.5" stroke-width="1.5"/>
<path d="M135.981 122.32L126.99 136.749" stroke="#22C55E" stroke-opacity="0.4"/>
<path d="M135.98 122.32L152.971 121.749" stroke="#22C55E" stroke-opacity="0.4"/>
<path d="M143.481 135.311L131.393 150.373" stroke="#22C55E" stroke-opacity="0.4"/>
<path d="M143.48 135.311L162.569 132.373" stroke="#22C55E" stroke-opacity="0.4"/>
<path d="M631.449 523.492C644.667 510.567 655.348 505.586 663.492 508.551C671.636 511.515 676.617 522.196 678.434 540.593C665.216 553.519 654.535 558.499 646.391 555.535C638.247 552.571 633.267 541.89 631.449 523.492Z" fill="#22C55E" fill-opacity="0.5"/>
<path d="M661.781 513.249L648.1 550.837" stroke="#16A34A" stroke-opacity="0.5"/>
<path d="M657.335 525.465L643.067 526.657" stroke="#16A34A" stroke-opacity="0.4" stroke-width="0.8"/>
<path d="M657.336 525.465L667.5 535.549" stroke="#16A34A" stroke-opacity="0.4" stroke-width="0.8"/>
<path d="M195.341 767.387C204.243 757.348 211.591 753.106 217.387 754.659C223.182 756.212 227.425 763.56 230.115 776.704C221.213 786.742 213.865 790.985 208.069 789.432C202.274 787.879 198.031 780.531 195.341 767.387Z" fill="#4ADE80" fill-opacity="0.55"/>
<path d="M216.352 758.522L209.105 785.568" stroke="#22C55E" stroke-opacity="0.5"/>
<path d="M434.142 494.142C429.428 480 429.428 470.572 434.142 465.858C438.856 461.144 448.284 461.144 462.426 465.858C467.14 480 467.14 489.428 462.426 494.142C457.712 498.856 448.284 498.856 434.142 494.142Z" fill="#4ADE80" fill-opacity="0.6"/>
<path d="M436.971 468.687L459.598 491.314" stroke="#22C55E" stroke-opacity="0.4"/>
<path d="M444.749 476.465L441.213 487.071" stroke="#22C55E" stroke-opacity="0.3" stroke-width="0.8"/>
<path d="M444.748 476.464L455.355 472.929" stroke="#22C55E" stroke-opacity="0.3" stroke-width="0.8"/>
<path d="M380 166C383.314 166 386 163.314 386 160C386 156.686 383.314 154 380 154C376.686 154 374 156.686 374 160C374 163.314 376.686 166 380 166Z" fill="#FACC15" fill-opacity="0.6"/>
<path d="M400 184C402.209 184 404 182.209 404 180C404 177.791 402.209 176 400 176C397.791 176 396 177.791 396 180C396 182.209 397.791 184 400 184Z" fill="#F97316" fill-opacity="0.4"/>
<path d="M660 425C662.761 425 665 422.761 665 420C665 417.239 662.761 415 660 415C657.239 415 655 417.239 655 420C655 422.761 657.239 425 660 425Z" fill="#4ADE80" fill-opacity="0.5"/>
<path d="M300 707C303.866 707 307 703.866 307 700C307 696.134 303.866 693 300 693C296.134 693 293 696.134 293 700C293 703.866 296.134 707 300 707Z" fill="#22C55E" fill-opacity="0.3"/>
<path d="M150 505C152.761 505 155 502.761 155 500C155 497.239 152.761 495 150 495C147.239 495 145 497.239 145 500C145 502.761 147.239 505 150 505Z" fill="#FACC15" fill-opacity="0.35"/>
<path d="M350 824C352.209 824 354 822.209 354 820C354 817.791 352.209 816 350 816C347.791 816 346 817.791 346 820C346 822.209 347.791 824 350 824Z" fill="#F97316" fill-opacity="0.3"/>
<path d="M160 415C179.33 415 195 399.33 195 380C195 360.67 179.33 345 160 345C140.67 345 125 360.67 125 380C125 399.33 140.67 415 160 415Z" stroke="#4ADE80" stroke-opacity="0.2" stroke-width="1.5"/>
<path d="M650 205C663.807 205 675 193.807 675 180C675 166.193 663.807 155 650 155C636.193 155 625 166.193 625 180C625 193.807 636.193 205 650 205Z" stroke="#FACC15" stroke-opacity="0.25" stroke-width="1.5"/>
<path d="M400 645C424.853 645 445 624.853 445 600C445 575.147 424.853 555 400 555C375.147 555 355 575.147 355 600C355 624.853 375.147 645 400 645Z" stroke="#22C55E" stroke-opacity="0.12"/>
<path d="M345 98C358.807 98 370 89.9411 370 80C370 70.0589 358.807 62 345 62C331.193 62 320 70.0589 320 80C320 89.9411 331.193 98 345 98Z" fill="#FACC15"/>
<path d="M340 84C345.523 84 350 80.4183 350 76C350 71.5817 345.523 68 340 68C334.477 68 330 71.5817 330 76C330 80.4183 334.477 84 340 84Z" fill="white" fill-opacity="0.2"/>
<path d="M372 84C375.314 84 378 82.2091 378 80C378 77.7909 375.314 76 372 76C368.686 76 366 77.7909 366 80C366 82.2091 368.686 84 372 84Z" fill="#EAB308"/>
<path d="M200 700C310.457 700 400 588.071 400 450C400 311.929 310.457 200 200 200C89.5431 200 0 311.929 0 450C0 588.071 89.5431 700 200 700Z" fill="#DCFCE7" fill-opacity="0.18"/>
</g>
</g>
<defs>
<radialGradient id="paint0_radial_113_121" cx="0" cy="0" r="1" gradientUnits="userSpaceOnUse" gradientTransform="translate(620 120) scale(280 260)">
<stop stop-color="#DCFCE7" stop-opacity="0.8"/>
<stop offset="1" stop-color="#DCFCE7" stop-opacity="0"/>
</radialGradient>
<radialGradient id="paint1_radial_113_121" cx="0" cy="0" r="1" gradientUnits="userSpaceOnUse" gradientTransform="translate(580 780) scale(220 200)">
<stop stop-color="#FEF3C7" stop-opacity="0.6"/>
<stop offset="1" stop-color="#FEF3C7" stop-opacity="0"/>
</radialGradient>
<linearGradient id="paint2_linear_113_121" x1="570" y1="77.5" x2="570" y2="210" gradientUnits="userSpaceOnUse">
<stop stop-color="#F87171"/>
<stop offset="1" stop-color="#DC2626"/>
</linearGradient>
<linearGradient id="paint3_linear_113_121" x1="540" y1="340" x2="540" y2="520" gradientUnits="userSpaceOnUse">
<stop stop-color="#4ADE80"/>
<stop offset="1" stop-color="#22C55E"/>
</linearGradient>
<linearGradient id="paint4_linear_113_121" x1="507.324" y1="695.107" x2="592.579" y2="810.049" gradientUnits="userSpaceOnUse">
<stop stop-color="#FACC15"/>
<stop offset="1" stop-color="#F97316"/>
</linearGradient>
<clipPath id="clip0_113_121">
<rect width="720" height="900" fill="white"/>
</clipPath>
<clipPath id="clip1_113_121">
<rect width="720" height="900" fill="white"/>
</clipPath>
</defs>
</svg>
